<mxfile host="app.diagrams.net" modified="2021-09-13T12:00:56.686Z" agent="5.0 (Macintosh; Intel Mac OS X 10_15_7) AppleWebKit/537.36 (KHTML, like Gecko) Chrome/93.0.4577.63 Safari/537.36" etag="M3ok1iWnPDi2RFKgUso4" version="14.9.5" type="github">
  <diagram id="-y3N3Z9cl_SN0APgkpZm" name="Page-1">
    <mxGraphModel dx="946" dy="536" grid="1" gridSize="10" guides="1" tooltips="1" connect="1" arrows="1" fold="1" page="1" pageScale="1" pageWidth="827" pageHeight="1169" math="0" shadow="0">
      <root>
        <mxCell id="0" />
        <mxCell id="1" parent="0" />
        <mxCell id="3-TPdkifqKUNHDb0MB-f-11" style="edgeStyle=orthogonalEdgeStyle;rounded=0;orthogonalLoop=1;jettySize=auto;html=1;entryX=0.1;entryY=1.025;entryDx=0;entryDy=0;entryPerimeter=0;" edge="1" parent="1" source="3-TPdkifqKUNHDb0MB-f-1" target="3-TPdkifqKUNHDb0MB-f-5">
          <mxGeometry relative="1" as="geometry" />
        </mxCell>
        <mxCell id="3-TPdkifqKUNHDb0MB-f-1" value="身份认证接口" style="rounded=0;whiteSpace=wrap;html=1;" vertex="1" parent="1">
          <mxGeometry x="80" y="360" width="120" height="40" as="geometry" />
        </mxCell>
        <mxCell id="3-TPdkifqKUNHDb0MB-f-12" style="edgeStyle=orthogonalEdgeStyle;rounded=0;orthogonalLoop=1;jettySize=auto;html=1;entryX=0.367;entryY=1;entryDx=0;entryDy=0;entryPerimeter=0;" edge="1" parent="1" source="3-TPdkifqKUNHDb0MB-f-2" target="3-TPdkifqKUNHDb0MB-f-5">
          <mxGeometry relative="1" as="geometry" />
        </mxCell>
        <mxCell id="3-TPdkifqKUNHDb0MB-f-2" value="在线发证接口" style="rounded=0;whiteSpace=wrap;html=1;" vertex="1" parent="1">
          <mxGeometry x="240" y="360" width="120" height="40" as="geometry" />
        </mxCell>
        <mxCell id="3-TPdkifqKUNHDb0MB-f-13" style="edgeStyle=orthogonalEdgeStyle;rounded=0;orthogonalLoop=1;jettySize=auto;html=1;entryX=0.633;entryY=1;entryDx=0;entryDy=0;entryPerimeter=0;" edge="1" parent="1" source="3-TPdkifqKUNHDb0MB-f-3" target="3-TPdkifqKUNHDb0MB-f-5">
          <mxGeometry relative="1" as="geometry" />
        </mxCell>
        <mxCell id="3-TPdkifqKUNHDb0MB-f-3" value="SSL接口" style="rounded=0;whiteSpace=wrap;html=1;" vertex="1" parent="1">
          <mxGeometry x="400" y="360" width="120" height="40" as="geometry" />
        </mxCell>
        <mxCell id="3-TPdkifqKUNHDb0MB-f-14" style="edgeStyle=orthogonalEdgeStyle;rounded=0;orthogonalLoop=1;jettySize=auto;html=1;entryX=0.9;entryY=1.025;entryDx=0;entryDy=0;entryPerimeter=0;" edge="1" parent="1" source="3-TPdkifqKUNHDb0MB-f-4" target="3-TPdkifqKUNHDb0MB-f-5">
          <mxGeometry relative="1" as="geometry" />
        </mxCell>
        <mxCell id="3-TPdkifqKUNHDb0MB-f-4" value="本地证书管理接口" style="rounded=0;whiteSpace=wrap;html=1;" vertex="1" parent="1">
          <mxGeometry x="560" y="360" width="120" height="40" as="geometry" />
        </mxCell>
        <mxCell id="3-TPdkifqKUNHDb0MB-f-15" style="edgeStyle=orthogonalEdgeStyle;rounded=0;orthogonalLoop=1;jettySize=auto;html=1;entryX=0.5;entryY=1;entryDx=0;entryDy=0;exitX=0.137;exitY=0;exitDx=0;exitDy=0;exitPerimeter=0;" edge="1" parent="1" source="3-TPdkifqKUNHDb0MB-f-5" target="3-TPdkifqKUNHDb0MB-f-6">
          <mxGeometry relative="1" as="geometry" />
        </mxCell>
        <mxCell id="3-TPdkifqKUNHDb0MB-f-16" style="edgeStyle=orthogonalEdgeStyle;rounded=0;orthogonalLoop=1;jettySize=auto;html=1;entryX=0.5;entryY=1;entryDx=0;entryDy=0;" edge="1" parent="1" source="3-TPdkifqKUNHDb0MB-f-5" target="3-TPdkifqKUNHDb0MB-f-8">
          <mxGeometry relative="1" as="geometry" />
        </mxCell>
        <mxCell id="3-TPdkifqKUNHDb0MB-f-17" style="edgeStyle=orthogonalEdgeStyle;rounded=0;orthogonalLoop=1;jettySize=auto;html=1;entryX=0.5;entryY=1;entryDx=0;entryDy=0;exitX=0.867;exitY=-0.025;exitDx=0;exitDy=0;exitPerimeter=0;" edge="1" parent="1" source="3-TPdkifqKUNHDb0MB-f-5" target="3-TPdkifqKUNHDb0MB-f-7">
          <mxGeometry relative="1" as="geometry" />
        </mxCell>
        <mxCell id="3-TPdkifqKUNHDb0MB-f-5" value="SDK接口" style="rounded=0;whiteSpace=wrap;html=1;" vertex="1" parent="1">
          <mxGeometry x="80" y="300" width="600" height="40" as="geometry" />
        </mxCell>
        <mxCell id="3-TPdkifqKUNHDb0MB-f-6" value="UIKit组件" style="rounded=0;whiteSpace=wrap;html=1;" vertex="1" parent="1">
          <mxGeometry x="80" y="240" width="160" height="40" as="geometry" />
        </mxCell>
        <mxCell id="3-TPdkifqKUNHDb0MB-f-18" style="edgeStyle=orthogonalEdgeStyle;rounded=0;orthogonalLoop=1;jettySize=auto;html=1;entryX=0.5;entryY=1;entryDx=0;entryDy=0;" edge="1" parent="1" source="3-TPdkifqKUNHDb0MB-f-7" target="3-TPdkifqKUNHDb0MB-f-9">
          <mxGeometry relative="1" as="geometry" />
        </mxCell>
        <mxCell id="3-TPdkifqKUNHDb0MB-f-7" value="JS-SDK" style="rounded=0;whiteSpace=wrap;html=1;" vertex="1" parent="1">
          <mxGeometry x="520" y="240" width="160" height="40" as="geometry" />
        </mxCell>
        <mxCell id="3-TPdkifqKUNHDb0MB-f-8" value="Uni-APP插件" style="rounded=0;whiteSpace=wrap;html=1;" vertex="1" parent="1">
          <mxGeometry x="300" y="240" width="160" height="40" as="geometry" />
        </mxCell>
        <mxCell id="3-TPdkifqKUNHDb0MB-f-9" value="WebUI组件" style="rounded=0;whiteSpace=wrap;html=1;" vertex="1" parent="1">
          <mxGeometry x="520" y="180" width="160" height="40" as="geometry" />
        </mxCell>
      </root>
    </mxGraphModel>
  </diagram>
</mxfile>
